<svg width="16" height="16" viewBox="0 0 16 16" fill="none" xmlns="http://www.w3.org/2000/svg">
<g opacity="0.9">
<path fill-rule="evenodd" clip-rule="evenodd" d="M7.7869 0.820886C8.02039 0.591199 8.39494 0.591199 8.62843 0.820886L15.3784 7.4609C15.6146 7.69328 15.6177 8.07316 15.3854 8.30939C15.153 8.54563 14.7731 8.54875 14.5369 8.31636L13.7076 7.50064V13.0986C13.7076 13.3747 13.4838 13.5986 13.2076 13.5986H3.20766C2.93152 13.5986 2.70766 13.3747 2.70766 13.0986V7.50064L1.87843 8.31636C1.6422 8.54875 1.26231 8.54563 1.02993 8.30939C0.797549 8.07316 0.80067 7.69328 1.0369 7.4609L7.7869 0.820886ZM8.20766 2.09026L12.7076 6.51694V12.5986H10.7076V9.09862C10.7076 8.82248 10.4838 8.59862 10.2077 8.59862H7.20766C6.93152 8.59862 6.70766 8.82248 6.70766 9.09862V12.5986H3.70766V6.51694L8.20766 2.09026ZM7.70766 12.5986H9.70766V9.59862H7.70766V12.5986Z" fill="white"/>
</g>
</svg>
