<svg width="15" height="15" viewBox="0 0 15 15" fill="none" xmlns="http://www.w3.org/2000/svg">
<path fill-rule="evenodd" clip-rule="evenodd" d="M3.61331 7.47999C3.61331 8.05989 3.1432 8.52999 2.56331 8.52999C1.98341 8.52999 1.51331 8.05989 1.51331 7.47999C1.51331 6.90009 1.98341 6.42999 2.56331 6.42999C3.1432 6.42999 3.61331 6.90009 3.61331 7.47999ZM8.27997 7.47999C8.27997 8.05989 7.80987 8.52999 7.22997 8.52999C6.65007 8.52999 6.17997 8.05989 6.17997 7.47999C6.17997 6.90009 6.65007 6.42999 7.22997 6.42999C7.80987 6.42999 8.27997 6.90009 8.27997 7.47999ZM11.8966 8.52999C12.4765 8.52999 12.9466 8.05989 12.9466 7.47999C12.9466 6.90009 12.4765 6.42999 11.8966 6.42999C11.3168 6.42999 10.8466 6.90009 10.8466 7.47999C10.8466 8.05989 11.3168 8.52999 11.8966 8.52999Z" fill="#002BB7" fill-opacity="0.773"/>
</svg>
