<svg width="17" height="17" viewBox="0 0 17 17" fill="none" xmlns="http://www.w3.org/2000/svg">
<path fill-rule="evenodd" clip-rule="evenodd" d="M10.8967 7.41334C10.8967 9.47521 9.22521 11.1467 7.16334 11.1467C5.10148 11.1467 3.43001 9.47521 3.43001 7.41334C3.43001 5.35148 5.10148 3.68001 7.16334 3.68001C9.22521 3.68001 10.8967 5.35148 10.8967 7.41334ZM10.1594 11.1636C9.33829 11.8206 8.29669 12.2133 7.16334 12.2133C4.51238 12.2133 2.36334 10.0643 2.36334 7.41334C2.36334 4.76238 4.51238 2.61334 7.16334 2.61334C9.81431 2.61334 11.9633 4.76238 11.9633 7.41334C11.9633 8.54669 11.5706 9.58829 10.9136 10.4094L13.9405 13.4362C14.1487 13.6445 14.1487 13.9822 13.9405 14.1905C13.7322 14.3987 13.3945 14.3987 13.1862 14.1905L10.1594 11.1636Z" fill="#000714" fill-opacity="0.624"/>
</svg>
