<svg width="21" height="18" viewBox="0 0 21 18" fill="none" xmlns="http://www.w3.org/2000/svg">
<g opacity="0.9">
<path d="M0.690002 1.32031C0.690002 0.865723 1.05577 0.5 1.51042 0.5H3.06579C3.81784 0.5 4.48443 0.9375 4.7955 1.59375H18.8451C19.7442 1.59375 20.4005 2.44824 20.1646 3.31641L18.7631 8.52197C18.4725 9.59521 17.4983 10.3438 16.3873 10.3438H6.52522L6.70981 11.3179C6.78501 11.7041 7.12344 11.9844 7.51655 11.9844H17.3718C17.8265 11.9844 18.1922 12.3501 18.1922 12.8047C18.1922 13.2593 17.8265 13.625 17.3718 13.625H7.51655C6.33379 13.625 5.31852 12.7842 5.09974 11.6255L3.33585 2.36279C3.31192 2.23291 3.19911 2.14062 3.06579 2.14062H1.51042C1.05577 2.14062 0.690002 1.7749 0.690002 1.32031ZM5.06556 16.3594C5.06556 16.1439 5.108 15.9306 5.19046 15.7315C5.27292 15.5325 5.39378 15.3516 5.54615 15.1993C5.69851 15.0469 5.8794 14.9261 6.07847 14.8436C6.27755 14.7612 6.49091 14.7188 6.70639 14.7188C6.92187 14.7188 7.13524 14.7612 7.33431 14.8436C7.53339 14.9261 7.71427 15.0469 7.86664 15.1993C8.019 15.3516 8.13986 15.5325 8.22232 15.7315C8.30478 15.9306 8.34722 16.1439 8.34722 16.3594C8.34722 16.5748 8.30478 16.7882 8.22232 16.9872C8.13986 17.1863 8.019 17.3671 7.86664 17.5195C7.71427 17.6718 7.53339 17.7927 7.33431 17.8751C7.13524 17.9576 6.92187 18 6.70639 18C6.49091 18 6.27755 17.9576 6.07847 17.8751C5.8794 17.7927 5.69851 17.6718 5.54615 17.5195C5.39378 17.3671 5.27292 17.1863 5.19046 16.9872C5.108 16.7882 5.06556 16.5748 5.06556 16.3594ZM16.5514 14.7188C16.9866 14.7188 17.4039 14.8916 17.7116 15.1993C18.0194 15.507 18.1922 15.9243 18.1922 16.3594C18.1922 16.7945 18.0194 17.2118 17.7116 17.5195C17.4039 17.8271 16.9866 18 16.5514 18C16.1162 18 15.6989 17.8271 15.3911 17.5195C15.0834 17.2118 14.9106 16.7945 14.9106 16.3594C14.9106 15.9243 15.0834 15.507 15.3911 15.1993C15.6989 14.8916 16.1162 14.7188 16.5514 14.7188ZM9.30438 5.96875C9.30438 6.34473 9.61203 6.65234 9.98806 6.65234H11.4922V8.15625C11.4922 8.53223 11.7998 8.83984 12.1758 8.83984C12.5519 8.83984 12.8595 8.53223 12.8595 8.15625V6.65234H14.3636C14.7396 6.65234 15.0473 6.34473 15.0473 5.96875C15.0473 5.59277 14.7396 5.28516 14.3636 5.28516H12.8595V3.78125C12.8595 3.40527 12.5519 3.09766 12.1758 3.09766C11.7998 3.09766 11.4922 3.40527 11.4922 3.78125V5.28516H9.98806C9.61203 5.28516 9.30438 5.59277 9.30438 5.96875Z" fill="white"/>
</g>
</svg>
